<?xml version="1.0" encoding="UTF-8"?>
<svg version="1.1" xmlns="http://www.w3.org/2000/svg" width="512" height="487">
<path d="M0 0 C2.07403975 1.762186 2.07403975 1.762186 4.359375 3.328125 C4.92914063 3.78960937 5.49890625 4.25109375 6.0859375 4.7265625 C6.0859375 5.3865625 6.0859375 6.0465625 6.0859375 6.7265625 C6.65828125 6.9740625 7.230625 7.2215625 7.8203125 7.4765625 C18.21033997 13.20899145 27.3056079 26.56719532 33.0859375 36.7265625 C33.0859375 37.3865625 33.0859375 38.0465625 33.0859375 38.7265625 C33.7459375 38.7265625 34.4059375 38.7265625 35.0859375 38.7265625 C58.87812075 81.81873961 65.92603466 128.05712326 52.42504883 175.94116211 C49.70139044 185.06253941 45.65002261 193.39563299 41.0859375 201.7265625 C40.59222656 202.62890625 40.09851563 203.53125 39.58984375 204.4609375 C33.55764027 214.91903533 26.35481901 224.74843587 18.09375 233.54296875 C16.02191051 235.74264431 16.02191051 235.74264431 14.04296875 238.3046875 C-7.34322373 264.77063428 -47.707974 281.83393358 -80.83984375 285.41015625 C-127.27541502 289.88981448 -170.51740066 278.42958538 -206.9140625 248.7265625 C-219.15699979 238.50307878 -229.06132596 226.91872754 -237.9140625 213.7265625 C-238.60242188 212.72367188 -239.29078125 211.72078125 -240 210.6875 C-248.88291849 197.09979465 -255.19209516 181.50241392 -258.9140625 165.7265625 C-259.19894531 164.55738281 -259.48382813 163.38820313 -259.77734375 162.18359375 C-262.56511614 150.06801421 -263.07983212 138.1898223 -263.0390625 125.7890625 C-263.04292969 124.61666016 -263.04679687 123.44425781 -263.05078125 122.23632812 C-263.03811083 110.76326525 -262.52440438 99.63530847 -259.7265625 88.4765625 C-259.39338013 87.13005615 -259.39338013 87.13005615 -259.0534668 85.75634766 C-253.35445159 63.37656273 -243.37483698 44.42208261 -229.9140625 25.7265625 C-229.2540625 24.7365625 -228.5940625 23.7465625 -227.9140625 22.7265625 C-227.2540625 22.7265625 -226.5940625 22.7265625 -225.9140625 22.7265625 C-225.65882813 22.15550781 -225.40359375 21.58445313 -225.140625 20.99609375 C-221.2046665 13.71331704 -214.26943383 7.88626228 -207.9140625 2.7265625 C-206.96789062 1.95441406 -206.02171875 1.18226562 -205.046875 0.38671875 C-197.11305825 -5.96404782 -188.78788625 -11.33423372 -179.9140625 -16.2734375 C-179.30788086 -16.61616699 -178.70169922 -16.95889648 -178.07714844 -17.31201172 C-122.15305776 -48.53206127 -49.02464805 -40.65866715 0 0 Z " fill="#060708" transform="translate(357.9140625,118.2734375)"/>
<path d="M0 0 C0.6290625 0.36931641 1.258125 0.73863281 1.90625 1.11914062 C6.06879913 3.61062491 9.80199583 6.26983924 13.375 9.5625 C13.375 10.2225 13.375 10.8825 13.375 11.5625 C13.931875 11.789375 14.48875 12.01625 15.0625 12.25 C18.04704749 13.94393236 20.00154045 16.07864698 22.375 18.5625 C22.9009375 19.05621094 23.426875 19.54992187 23.96875 20.05859375 C29.20303762 25.01927088 33.2979146 30.63357954 37.375 36.5625 C37.84397705 37.22266113 38.3129541 37.88282227 38.79614258 38.56298828 C42.58589826 44.02259192 45.40030735 49.55462252 47.9375 55.6875 C48.32099609 56.60619873 48.70449219 57.52489746 49.09960938 58.47143555 C50.20938411 61.16160648 51.29734368 63.85932279 52.375 66.5625 C52.66358887 67.27841309 52.95217773 67.99432617 53.24951172 68.73193359 C57.19361803 78.70732866 57.67686388 86.3923221 58.375 97.5625 C28.345 97.5625 -1.685 97.5625 -32.625 97.5625 C-34.605 92.6125 -34.605 92.6125 -36.625 87.5625 C-41.04230112 81.13582506 -46.23364572 76.1930787 -53.625 73.5625 C-54.54410156 73.20929688 -55.46320313 72.85609375 -56.41015625 72.4921875 C-64.93523461 70.026855 -74.46939669 70.55328849 -82.484375 74.375 C-83.54398438 74.9628125 -83.54398438 74.9628125 -84.625 75.5625 C-85.26953125 75.913125 -85.9140625 76.26375 -86.578125 76.625 C-94.25833815 81.43348128 -97.70317549 89.71885098 -101.625 97.5625 C-130.995 97.5625 -160.365 97.5625 -190.625 97.5625 C-190.625 82.42197352 -190.625 82.42197352 -188.125 74.375 C-187.85655273 73.48280762 -187.58810547 72.59061523 -187.31152344 71.67138672 C-176.59582468 37.29947245 -153.59198425 10.59376837 -122.00292969 -6.61083984 C-82.53682814 -27.23768758 -37.30986435 -22.40914052 0 0 Z " fill="#E22B2E" transform="translate(322.625,136.4375)"/>
<path d="M0 0 C30.03 0 60.06 0 91 0 C91.99 2.97 91.99 2.97 93 6 C97.70834661 14.86188804 104.52656 21.95168402 114.10546875 25.3359375 C124.74516432 27.7768933 134.58822135 26.46713613 144 21 C151.96145043 15.65255913 155.51259464 8.71851339 159 0 C188.7 0 218.4 0 249 0 C249 31.73315921 233.45195275 59.14520392 211.5625 81.6875 C188.88302207 103.62785258 158.77035008 116.45307514 127.1574707 116.26074219 C125.06887676 116.2500327 122.98114595 116.26069187 120.89257812 116.2734375 C87.9598011 116.30946366 59.71151629 102.21708281 36.375 79.6875 C19.72702433 62.61446963 8.49317865 41.55311156 2.625 18.5625 C2.36170898 17.53116943 2.09841797 16.49983887 1.82714844 15.43725586 C1.58770508 14.44862549 1.34826172 13.45999512 1.1015625 12.44140625 C0.88838379 11.56170166 0.67520508 10.68199707 0.45556641 9.77563477 C0 7 0 7 0 0 Z " fill="#FBFCFD" transform="translate(131,253)"/>
<path d="M0 0 C2.07403975 1.762186 2.07403975 1.762186 4.359375 3.328125 C4.92914063 3.78960937 5.49890625 4.25109375 6.0859375 4.7265625 C6.0859375 5.3865625 6.0859375 6.0465625 6.0859375 6.7265625 C6.65828125 6.9740625 7.230625 7.2215625 7.8203125 7.4765625 C18.21033997 13.20899145 27.3056079 26.56719532 33.0859375 36.7265625 C33.0859375 37.3865625 33.0859375 38.0465625 33.0859375 38.7265625 C33.7459375 38.7265625 34.4059375 38.7265625 35.0859375 38.7265625 C58.87812075 81.81873961 65.92603466 128.05712326 52.42504883 175.94116211 C49.70139044 185.06253941 45.65002261 193.39563299 41.0859375 201.7265625 C40.59222656 202.62890625 40.09851563 203.53125 39.58984375 204.4609375 C33.55764027 214.91903533 26.35481901 224.74843587 18.09375 233.54296875 C16.02191051 235.74264431 16.02191051 235.74264431 14.04296875 238.3046875 C-7.34322373 264.77063428 -47.707974 281.83393358 -80.83984375 285.41015625 C-127.27541502 289.88981448 -170.51740066 278.42958538 -206.9140625 248.7265625 C-219.15699979 238.50307878 -229.06132596 226.91872754 -237.9140625 213.7265625 C-238.60242188 212.72367188 -239.29078125 211.72078125 -240 210.6875 C-248.88291849 197.09979465 -255.19209516 181.50241392 -258.9140625 165.7265625 C-259.19894531 164.55738281 -259.48382813 163.38820313 -259.77734375 162.18359375 C-262.56511614 150.06801421 -263.07983212 138.1898223 -263.0390625 125.7890625 C-263.04292969 124.61666016 -263.04679687 123.44425781 -263.05078125 122.23632812 C-263.03811083 110.76326525 -262.52440438 99.63530847 -259.7265625 88.4765625 C-259.39338013 87.13005615 -259.39338013 87.13005615 -259.0534668 85.75634766 C-253.35445159 63.37656273 -243.37483698 44.42208261 -229.9140625 25.7265625 C-229.2540625 24.7365625 -228.5940625 23.7465625 -227.9140625 22.7265625 C-227.2540625 22.7265625 -226.5940625 22.7265625 -225.9140625 22.7265625 C-225.65882813 22.15550781 -225.40359375 21.58445313 -225.140625 20.99609375 C-221.2046665 13.71331704 -214.26943383 7.88626228 -207.9140625 2.7265625 C-206.96789062 1.95441406 -206.02171875 1.18226562 -205.046875 0.38671875 C-197.11305825 -5.96404782 -188.78788625 -11.33423372 -179.9140625 -16.2734375 C-179.30788086 -16.61616699 -178.70169922 -16.95889648 -178.07714844 -17.31201172 C-122.15305776 -48.53206127 -49.02464805 -40.65866715 0 0 Z M-129.9140625 -18.2734375 C-130.88214844 -18.0671875 -131.85023438 -17.8609375 -132.84765625 -17.6484375 C-135.89637303 -16.93585562 -138.89968565 -16.11925152 -141.9140625 -15.2734375 C-143.67943359 -14.81904297 -143.67943359 -14.81904297 -145.48046875 -14.35546875 C-168.413656 -8.12503127 -188.01706671 5.40724178 -204.9140625 21.7265625 C-205.71585938 22.47679687 -206.51765625 23.22703125 -207.34375 24 C-226.55428627 42.41286694 -239.31909846 68.19891425 -245.1640625 93.9140625 C-245.40890381 94.9817688 -245.40890381 94.9817688 -245.65869141 96.07104492 C-249.85549466 115.62260598 -250.48488193 138.5770551 -244.50830078 157.74316406 C-243.86893215 159.87719478 -243.33675072 162.02149058 -242.81640625 164.1875 C-240.19439299 174.84657853 -236.23041912 184.14618051 -230.9140625 193.7265625 C-230.04587891 195.33144531 -230.04587891 195.33144531 -229.16015625 196.96875 C-222.30514296 209.21552548 -213.52921031 219.6084685 -203.9140625 229.7265625 C-203.34429687 230.36078125 -202.77453125 230.995 -202.1875 231.6484375 C-180.26890531 255.25307794 -144.44281822 269.21001077 -112.74511719 270.89501953 C-98.20766826 271.39841714 -84.14736158 270.77807939 -69.9140625 267.7265625 C-68.76679688 267.48679687 -67.61953125 267.24703125 -66.4375 267 C-30.10029954 258.62864496 1.96375019 233.96237527 21.79248047 202.81640625 C42.27459966 169.72336354 49.75521489 131.86170415 41.41918945 93.53613281 C31.89677634 54.05906637 7.23354016 20.76164472 -27.359375 -0.40234375 C-57.42181388 -18.36468263 -95.40975595 -25.7037054 -129.9140625 -18.2734375 Z " fill="#F7F8F9" transform="translate(357.9140625,118.2734375)"/>
<path d="M0 0 C7.26 0 14.52 0 22 0 C23.30356442 29.19984296 8.00887756 55.60661659 -11 77 C-21.03409804 87.86731819 -32.27346605 95.66951644 -45 103 C-45 102.01 -45 101.02 -45 100 C-43.03814584 98.28859531 -41.03697617 96.62126675 -39 95 C-38.505 94.01 -38.505 94.01 -38 93 C-37.34 93 -36.68 93 -36 93 C-35.7525 92.278125 -35.505 91.55625 -35.25 90.8125 C-33.88046785 87.73105265 -32.14002978 85.5939755 -30 83 C-28.97614957 81.34787771 -27.9805214 79.67820009 -27 78 C-26.34902344 76.88625 -25.69804687 75.7725 -25.02734375 74.625 C-24.33012607 73.41701456 -23.63352128 72.20867518 -22.9375 71 C-22.58623047 70.39671875 -22.23496094 69.7934375 -21.87304688 69.171875 C-19.96820352 65.85910394 -18.31244182 62.5905144 -17 59 C-16.34 59 -15.68 59 -15 59 C-14.82984375 58.34515625 -14.6596875 57.6903125 -14.484375 57.015625 C-12.38212381 49.09863649 -9.84946972 41.3714264 -7.18359375 33.62890625 C-6.43349957 31.42575005 -5.70820009 29.21697419 -5 27 C-4.7421875 26.195625 -4.484375 25.39125 -4.21875 24.5625 C-1.80444566 16.4504374 -0.93277347 8.3949612 0 0 Z " fill="#D8DCDD" transform="translate(358,253)"/>
<path d="M0 0 C5.52496418 3.13601236 9.69068937 6.44591808 11.6328125 12.6875 C12.88218495 18.96812907 13.29361157 25.66395739 9.94140625 31.3046875 C6.56825525 35.90096407 2.40039015 39.7052719 -2.93359375 41.8671875 C-10.13288523 42.77186037 -16.40649469 42.73612469 -22.3515625 38.29296875 C-26.93626404 34.16107724 -29.58898547 29.99671156 -30.26953125 23.81640625 C-30.3620589 16.09034739 -29.98974705 10.09686608 -24.47265625 4.34375 C-17.41313562 -1.85572751 -8.92179968 -3.44516898 0 0 Z " fill="#F9FAFB" transform="translate(264.93359375,223.1328125)"/>
<path d="M0 0 C2.81638633 3.34289179 4.38069431 6.96396974 5.9375 11 C6.3255481 12.00075562 6.3255481 12.00075562 6.72143555 13.02172852 C7.24295825 14.37775231 7.76066262 15.73525119 8.27441406 17.09423828 C8.91122885 18.76684133 9.5746038 20.42928178 10.2421875 22.08984375 C13.55650777 30.90787104 13.36040861 36.76653774 14 47 C-16.03 47 -46.06 47 -77 47 C-78.32 43.7 -79.64 40.4 -81 37 C-85.41730112 30.57332506 -90.60864572 25.6305787 -98 23 C-98.90621094 22.65195313 -99.81242187 22.30390625 -100.74609375 21.9453125 C-104.46193149 20.86580142 -108.03471574 20.55361787 -111.875 20.375 C-112.56335938 20.33632812 -113.25171875 20.29765625 -113.9609375 20.2578125 C-115.64023246 20.16451834 -117.32007767 20.08121762 -119 20 C-119 19.34 -119 18.68 -119 18 C-109.56430084 17.54708644 -102.5855961 17.72437314 -94 22 C-93.01 22.33 -92.02 22.66 -91 23 C-91 23.66 -91 24.32 -91 25 C-90.443125 25.226875 -89.88625 25.45375 -89.3125 25.6875 C-83.86477295 28.77945319 -80.38462696 33.87470775 -77 39 C-77 39.66 -77 40.32 -77 41 C-76.01 41.33 -75.02 41.66 -74 42 C-74 42.99 -74 43.98 -74 45 C-32.42 44.505 -32.42 44.505 10 44 C10 32.9267274 8.55641047 23.63111148 3 14 C2.505 13.505 2.505 13.505 2 13 C1.66666667 10.66666667 1.33333333 8.33333333 1 6 C0.505 5.505 0.505 5.505 0 5 C-0.04063832 3.33382885 -0.042721 1.66611905 0 0 Z " fill="#C43238" transform="translate(367,187)"/>
<path d="M0 0 C-3.82301911 1.23269461 -5.71816024 0.40263628 -9.40234375 -1.10546875 C-14.43679219 -2.83913596 -19.71951935 -3.65410772 -24.94921875 -4.60351562 C-26.38470291 -4.88104256 -27.81435156 -5.18973112 -29.23828125 -5.52148438 C-36.25815927 -7.1086367 -43.06675879 -7.38357129 -50.25 -7.375 C-51.43843506 -7.37556396 -52.62687012 -7.37612793 -53.85131836 -7.37670898 C-63.19311858 -7.25968869 -71.53012891 -6.23493554 -80 -2 C-82.3329866 -1.95977609 -84.66706666 -1.95679753 -87 -2 C-87 -1.34 -87 -0.68 -87 0 C-87.62648437 0.02578125 -88.25296875 0.0515625 -88.8984375 0.078125 C-89.71570313 0.13484375 -90.53296875 0.1915625 -91.375 0.25 C-92.18710938 0.29640625 -92.99921875 0.3428125 -93.8359375 0.390625 C-94.55007812 0.59171875 -95.26421875 0.7928125 -96 1 C-96.69937532 2.31647119 -97.36729133 3.65022151 -98 5 C-101.625 5.75 -101.625 5.75 -105 6 C-105.495 7.485 -105.495 7.485 -106 9 C-108.30824842 9.71023028 -110.58303983 10.01261364 -112.96875 10.375 C-113.6390625 10.58125 -114.309375 10.7875 -115 11 C-115.495 12.485 -115.495 12.485 -116 14 C-116.99 14 -117.98 14 -119 14 C-119 14.66 -119 15.32 -119 16 C-119.99 16 -120.98 16 -122 16 C-122.226875 16.556875 -122.45375 17.11375 -122.6875 17.6875 C-125.60390007 22.82591917 -130.52468425 26.27057021 -135 30 C-138.77411054 33.58056641 -142.12227231 37.43492088 -145.44921875 41.42578125 C-146.21685547 42.20501953 -146.21685547 42.20501953 -147 43 C-147.66 43 -148.32 43 -149 43 C-145.80703412 35.6066619 -138.75970148 29.47874043 -133 24 C-132.3296875 23.34644531 -131.659375 22.69289062 -130.96875 22.01953125 C-124.23581661 15.66915089 -116.97055014 10.62859605 -109 6 C-108.38914551 5.64518555 -107.77829102 5.29037109 -107.14892578 4.92480469 C-74.14312603 -13.80471123 -34.44498903 -15.02081362 0 0 Z " fill="#AC2F33" transform="translate(304,127)"/>
<path d="M0 0 C0.33 0 0.66 0 1 0 C1.1875 2.375 1.1875 2.375 1 5 C0.01 5.66 -0.98 6.32 -2 7 C-3.64041489 9.42520754 -3.64041489 9.42520754 -5.125 12.25 C-5.64320313 13.18328125 -6.16140625 14.1165625 -6.6953125 15.078125 C-8.04028432 18.09021757 -8.60424585 20.73744137 -9 24 C-9.66 24 -10.32 24 -11 24 C-11.19335938 24.99902344 -11.38671875 25.99804688 -11.5859375 27.02734375 C-11.84632813 28.31769531 -12.10671875 29.60804688 -12.375 30.9375 C-12.63023437 32.22527344 -12.88546875 33.51304687 -13.1484375 34.83984375 C-13.42945313 35.88269531 -13.71046875 36.92554688 -14 38 C-14.99 38.495 -14.99 38.495 -16 39 C-19.28808265 46.54614968 -19.85339863 54.97379044 -21 63 C7.71 63 36.42 63 66 63 C66.33 61.35 66.66 59.7 67 58 C67.66 58 68.32 58 69 58 C68.01 60.97 68.01 60.97 67 64 C37.63 64 8.26 64 -22 64 C-22 48.86218454 -22 48.86218454 -19.5 40.8125 C-19.23300293 39.92248291 -18.96600586 39.03246582 -18.69091797 38.11547852 C-14.45835232 24.51011258 -8.86515196 11.27488155 0 0 Z " fill="#AB3236" transform="translate(154,170)"/>
<path d="M0 0 C2.49030509 1.00384602 2.49030509 1.00384602 6.10546875 1.26953125 C9.57820411 1.8823669 11.12718416 3.05329292 13.67578125 5.4296875 C16.11897356 7.54830112 18.87164168 9.09041713 21.65625 10.71875 C23.29296875 11.83203125 23.29296875 11.83203125 24.29296875 13.83203125 C20.94359415 12.85172649 18.13904328 11.74239897 15.11328125 9.98046875 C11.13189402 7.66479079 6.99843445 5.92180502 2.73046875 4.20703125 C2.00150391 3.90796875 1.27253906 3.60890625 0.52148438 3.30078125 C-13.71020413 -2.48924864 -27.8956779 -4.43986775 -43.20703125 -4.48046875 C-44.18462402 -4.48578613 -45.1622168 -4.49110352 -46.16943359 -4.49658203 C-52.019836 -4.44007077 -57.4929892 -3.8123481 -63.21679688 -2.59448242 C-65.76241964 -2.15848213 -68.1296756 -2.09557436 -70.70703125 -2.16796875 C-70.37703125 -2.82796875 -70.04703125 -3.48796875 -69.70703125 -4.16796875 C-67.23046875 -4.765625 -67.23046875 -4.765625 -64.08203125 -5.23046875 C-62.54675781 -5.46443359 -62.54675781 -5.46443359 -60.98046875 -5.703125 C-59.90023437 -5.85652344 -58.82 -6.00992188 -57.70703125 -6.16796875 C-56.1446875 -6.45220703 -56.1446875 -6.45220703 -54.55078125 -6.7421875 C-36.81842943 -8.70644192 -16.59517092 -6.70334438 0 0 Z " fill="#2D0506" transform="translate(297.70703125,122.16796875)"/>
<path d="M0 0 C4.38209309 1.36940409 7.55994959 3.78206194 11.1328125 6.5625 C12.70665485 7.77416106 14.34735828 8.89823885 16 10 C16 10.66 16 11.32 16 12 C16.556875 12.226875 17.11375 12.45375 17.6875 12.6875 C20.67204749 14.38143236 22.62654045 16.51614698 25 19 C25.57234375 19.54011719 26.1446875 20.08023438 26.734375 20.63671875 C30.753158 24.45799746 33.47801436 28.05690815 36 33 C32.11497836 32.42444124 29.75615725 30.75615725 27 28 C26.6875 25.25 26.6875 25.25 27 23 C25.68 22.34 24.36 21.68 23 21 C23 20.34 23 19.68 23 19 C22.401875 18.87625 21.80375 18.7525 21.1875 18.625 C19 18 19 18 16 16 C16 15.34 16 14.68 16 14 C15.21625 13.9175 14.4325 13.835 13.625 13.75 C12.325625 13.37875 12.325625 13.37875 11 13 C10.32101676 11.67289639 9.65595559 10.33863531 9 9 C7.36549473 7.29862802 7.36549473 7.29862802 5.5 5.8125 C4.8915625 5.30332031 4.283125 4.79414063 3.65625 4.26953125 C2.01530467 2.92882362 2.01530467 2.92882362 0 2 C0 1.34 0 0.68 0 0 Z " fill="#BA2F3C" transform="translate(320,136)"/>
<path d="M0 0 C0.33 0 0.66 0 1 0 C1 2.64 1 5.28 1 8 C-29.03 8 -59.06 8 -90 8 C-90.33 6.35 -90.66 4.7 -91 3 C-90.01 3.33 -89.02 3.66 -88 4 C-88 4.99 -88 5.98 -88 7 C-58.96 7 -29.92 7 0 7 C0 4.69 0 2.38 0 0 Z " fill="#B73A40" transform="translate(380,226)"/>
<path d="M0 0 C0.33 0 0.66 0 1 0 C1 2.31 1 4.62 1 7 C29.71 7 58.42 7 88 7 C88.33 5.35 88.66 3.7 89 2 C89.66 2 90.32 2 91 2 C90.34 3.98 89.68 5.96 89 8 C59.63 8 30.26 8 0 8 C0 5.36 0 2.72 0 0 Z " fill="#BA3B40" transform="translate(132,226)"/>
<path d="M0 0 C2.8445574 2.8445574 3.4685435 6.3046994 4.625 10.0625 C9.64253976 25.63234309 16.66641307 40.30122653 26.76171875 53.26171875 C28 55 28 55 28 57 C27.34 57 26.68 57 26 57 C24.1877968 54.53491551 22.51487035 52.07733512 20.875 49.5 C20.13685059 48.34346924 20.13685059 48.34346924 19.38378906 47.16357422 C12.6995171 36.5196213 7.42130226 25.57334429 3 13.8125 C2.69674805 13.01021973 2.39349609 12.20793945 2.08105469 11.38134766 C0.6695817 7.47616182 -0.40592101 4.2198872 0 0 Z " fill="#DFDCDC" transform="translate(100,284)"/>
<path d="M0 0 C3.91027835 -0.050211 7.82042656 -0.08609395 11.73095703 -0.10986328 C13.69961157 -0.12462224 15.6681769 -0.15006161 17.63671875 -0.17578125 C29.47287254 -0.23586325 39.80778961 1.04713647 50.75 5.625 C51.554375 5.94984375 52.35875 6.2746875 53.1875 6.609375 C55.12942946 7.39539407 57.06541557 8.19607269 59 9 C55.17698089 10.23269461 53.28183976 9.40263628 49.59765625 7.89453125 C44.56447994 6.16130212 39.28435061 5.35026365 34.05712891 4.39550781 C32.60169052 4.11568225 31.15104268 3.81037967 29.70458984 3.48730469 C23.24872784 2.07207494 16.97236731 1.58639762 10.375 1.375 C9.37082031 1.33632812 8.36664063 1.29765625 7.33203125 1.2578125 C4.88818995 1.16471378 2.44433404 1.07889087 0 1 C0 0.67 0 0.34 0 0 Z " fill="#B63439" transform="translate(245,118)"/>
<path d="M0 0 C0.66 0.33 1.32 0.66 2 1 C1.28714844 2.10214844 0.57429688 3.20429688 -0.16015625 4.33984375 C-6.64123505 14.54332444 -11.79765025 24.66943241 -16 36 C-16.33 36 -16.66 36 -17 36 C-17.26905686 29.40810703 -16.24292328 23.79093442 -13 18 C-12.34 18 -11.68 18 -11 18 C-11 17.34 -11 16.68 -11 16 C-10.34 16 -9.68 16 -9 16 C-9 14.68 -9 13.36 -9 12 C-8.34 11.67 -7.68 11.34 -7 11 C-6.731875 10.0925 -6.46375 9.185 -6.1875 8.25 C-4.80939964 4.47835691 -2.96217725 2.65036912 0 0 Z " fill="#1E0202" transform="translate(154,167)"/>
<path d="M0 0 C2.81658306 3.3431253 4.37970577 6.96417609 5.9375 11 C6.19547363 11.66136963 6.45344727 12.32273926 6.71923828 13.00415039 C7.48992677 14.99897228 8.24718648 16.99837207 9 19 C9.42152344 20.11246094 9.84304688 21.22492188 10.27734375 22.37109375 C12.35072234 28.16327237 13.47329211 32.84720263 13 39 C12.67 39 12.34 39 12 39 C11.7525 37.88625 11.505 36.7725 11.25 35.625 C9.98264061 30.54657408 8.03169926 25.8135644 6 21 C5.70609375 20.2884375 5.4121875 19.576875 5.109375 18.84375 C3.93102515 15.68944859 3.93102515 15.68944859 2 13 C1.66666667 10.66666667 1.33333333 8.33333333 1 6 C0.67 5.67 0.34 5.34 0 5 C-0.04063832 3.33382885 -0.042721 1.66611905 0 0 Z " fill="#A93039" transform="translate(367,187)"/>
<path d="M0 0 C1.09376953 0.04382813 2.18753906 0.08765625 3.31445312 0.1328125 C9.11548127 0.38427188 14.81443386 0.80085443 20.5625 1.625 C20.5625 1.955 20.5625 2.285 20.5625 2.625 C18.96764771 2.60928955 18.96764771 2.60928955 17.34057617 2.59326172 C13.34663338 2.55670454 9.35270497 2.53397131 5.35864258 2.51513672 C3.63921613 2.5051597 1.91980628 2.49157325 0.20043945 2.47412109 C-12.59383927 2.30407759 -12.59383927 2.30407759 -25.2175293 4.19189453 C-27.66870207 4.6701064 -29.94619397 4.69485227 -32.4375 4.625 C-32.1075 3.965 -31.7775 3.305 -31.4375 2.625 C-28.9609375 2.02734375 -28.9609375 2.02734375 -25.8125 1.5625 C-24.27722656 1.32853516 -24.27722656 1.32853516 -22.7109375 1.08984375 C-21.63070312 0.93644531 -20.55046875 0.78304687 -19.4375 0.625 C-18.40753906 0.43292969 -17.37757813 0.24085937 -16.31640625 0.04296875 C-10.84485188 -0.54661465 -5.48882067 -0.25784243 0 0 Z " fill="#1E0001" transform="translate(259.4375,115.375)"/>
<path d="M0 0 C3.387199 1.4388102 5.3594104 3.22119499 7.75 6 C8.67039063 7.051875 8.67039063 7.051875 9.609375 8.125 C11 10 11 10 11 12 C11.66 12 12.32 12 13 12 C13 12.66 13 13.32 13 14 C15.475 14.99 15.475 14.99 18 16 C18 16.66 18 17.32 18 18 C18.66 18 19.32 18 20 18 C21.2890625 19.53125 21.2890625 19.53125 22.625 21.5 C23.07101563 22.1496875 23.51703125 22.799375 23.9765625 23.46875 C24.31429687 23.9740625 24.65203125 24.479375 25 25 C19.99368906 23.5204397 17.15935964 20.58420123 13.625 16.9375 C13.05499268 16.35838867 12.48498535 15.77927734 11.89770508 15.18261719 C0 2.93413231 0 2.93413231 0 0 Z " fill="#E5DDDC" transform="translate(128,342)"/>
<path d="M0 0 C8.84006667 0.01163445 15.67621282 2.49247521 23 7.375 C22.34 8.035 21.68 8.695 21 9.375 C21 8.715 21 8.055 21 7.375 C20.26523437 7.25253906 19.53046875 7.13007813 18.7734375 7.00390625 C16.09753087 6.39711615 14.0770513 5.51271459 11.625 4.3125 C4.92129369 1.49897478 -1.87354541 2.03293018 -9 2.375 C-6.12321815 -0.50178185 -4.01445059 0.04046825 0 0 Z " fill="#330403" transform="translate(255,206.625)"/>
<path d="M0 0 C0 3 0 3 -1.6875 4.91015625 C-2.450625 5.62042969 -3.21375 6.33070313 -4 7.0625 C-8.23875364 11.13384631 -11.83776107 15.43921015 -15.37109375 20.12890625 C-15.90863281 20.74636719 -16.44617188 21.36382812 -17 22 C-17.66 22 -18.32 22 -19 22 C-17.4585799 18.43082939 -15.30524541 15.91782231 -12.6875 13.0625 C-11.88441406 12.1859375 -11.08132812 11.309375 -10.25390625 10.40625 C-7.88519561 7.87743587 -5.48602635 5.41290793 -3 3 C-2.401875 2.401875 -1.80375 1.80375 -1.1875 1.1875 C-0.795625 0.795625 -0.40375 0.40375 0 0 Z " fill="#A83337" transform="translate(174,148)"/>
<path d="M0 0 C0.99 0.66 1.98 1.32 3 2 C2.48050781 2.44730469 1.96101563 2.89460938 1.42578125 3.35546875 C-7.06834516 9.77106998 -7.06834516 9.77106998 -11 19 C-12.98 18.67 -14.96 18.34 -17 18 C-14.47283309 15.46829599 -11.94109873 12.9418935 -9.39453125 10.4296875 C-8.54246094 9.58664062 -7.69039063 8.74359375 -6.8125 7.875 C-5.95269531 7.02679688 -5.09289062 6.17859375 -4.20703125 5.3046875 C-1.87938579 3.00850005 -1.87938579 3.00850005 0 0 Z " fill="#151819" transform="translate(351,324)"/>
<path d="M0 0 C0.66 0 1.32 0 2 0 C2.97358116 2.92074347 3.94584391 5.84180253 4.91015625 8.765625 C5.55583164 10.68182293 6.22229799 12.59155447 6.93359375 14.484375 C8.92965853 19.87088473 9.27369533 24.2523981 9 30 C8.67 30 8.34 30 8 30 C7.79375 28.72125 7.5875 27.4425 7.375 26.125 C6.15914093 19.92054266 4.0997741 14.03231951 2.03271484 8.07080078 C0 2.18358651 0 2.18358651 0 0 Z " fill="#2F0405" transform="translate(372,196)"/>
<path d="M0 0 C1.283626 3.850878 0.31110333 6.48455692 -0.75 10.25 C-0.92015625 10.89324219 -1.0903125 11.53648437 -1.265625 12.19921875 C-2.48601024 16.65900892 -4.10010464 20.78528961 -6 25 C-7.12865035 21.67424363 -6.8691177 19.87796829 -5.625 16.625 C-4.34485838 13.08853571 -3.48037278 9.74690769 -3 6 C-2.34 6 -1.68 6 -1 6 C-0.67 4.02 -0.34 2.04 0 0 Z " fill="#E0DEDD" transform="translate(412,280)"/>
<path d="M0 0 C5.37143477 4.75165383 9.94945786 10.82340489 11 18 C7.46413986 14.82679218 5.41421969 12.83256305 5 8 C4.01 7.67 3.02 7.34 2 7 C0 4 0 4 0 0 Z " fill="#A02E37" transform="translate(356,169)"/>
<path d="M0 0 C0.66 0.33 1.32 0.66 2 1 C1.1875 2.9375 1.1875 2.9375 0 5 C-0.99 5.33 -1.98 5.66 -3 6 C-3.474375 6.474375 -3.94875 6.94875 -4.4375 7.4375 C-6.15372082 9.15372082 -7.79852582 10.01313226 -10 11 C-8.56314642 5.97101246 -6.05763331 4.04322498 -2 1 C-1.34 0.67 -0.68 0.34 0 0 Z " fill="#E4E6E7" transform="translate(247,223)"/>
<path d="M0 0 C-0.66 0 -1.32 0 -2 0 C-2 0.66 -2 1.32 -2 2 C-5.01189272 4.00792848 -7.58221068 4.88398716 -11 6 C-12.34721283 6.63815344 -13.68747118 7.29325371 -15 8 C-15 8.66 -15 9.32 -15 10 C-15.66 9.67 -16.32 9.34 -17 9 C-6.59567443 -2.37973109 -6.59567443 -2.37973109 0 0 Z " fill="#310505" transform="translate(246,210)"/>
<path d="M0 0 C1.32 0.33 2.64 0.66 4 1 C3.2575 1.721875 2.515 2.44375 1.75 3.1875 C-1.8554447 6.87488663 -4.93454999 10.86164248 -8 15 C-7.74563586 10.67580959 -7.48340805 8.54538344 -4.5625 5.25 C-3.2940625 4.13625 -3.2940625 4.13625 -2 3 C-1.34 2.01 -0.68 1.02 0 0 Z " fill="#B83338" transform="translate(231,213)"/>
<path d="M0 0 C1 2 1 2 0.328125 4.56640625 C-0.02765625 5.55511719 -0.3834375 6.54382813 -0.75 7.5625 C-1.26820313 9.04943359 -1.26820313 9.04943359 -1.796875 10.56640625 C-2.19390625 11.36949219 -2.5909375 12.17257813 -3 13 C-3.99 13.33 -4.98 13.66 -6 14 C-5.57202798 8.29370646 -3.15654048 4.58921384 0 0 Z " fill="#2C0504" transform="translate(228,220)"/>
<path d="M0 0 C5.07661322 1.2986685 7.42635287 3.24767051 11 7 C12.94835295 8.43928211 14.94619094 9.71039896 17 11 C16.01 11.495 16.01 11.495 15 12 C12.5390625 10.7421875 12.5390625 10.7421875 9.625 8.875 C8.19027344 7.97394531 8.19027344 7.97394531 6.7265625 7.0546875 C3.9427142 4.95683047 2.04786614 2.80489723 0 0 Z " fill="#E5E2E1" transform="translate(154,368)"/>
<path d="M0 0 C0.74121094 0.03996094 1.48242188 0.07992187 2.24609375 0.12109375 C4.12976622 0.24850852 6.00492606 0.49061614 7.875 0.75 C8.205 1.41 8.535 2.07 8.875 2.75 C7.37259766 2.69779297 7.37259766 2.69779297 5.83984375 2.64453125 C-4.02263195 2.32665819 -4.02263195 2.32665819 -13.125 5.75 C-10.32868859 -0.70302632 -6.36806709 -0.48124233 0 0 Z " fill="#2C2C2F" transform="translate(255.125,220.25)"/>
<path d="M0 0 C3.99910774 1.33303591 4.87727103 3.28108728 6.9921875 6.7890625 C8.4876655 10.06983982 8.37011842 12.44686315 8 16 C5.9105012 12.8657518 4.43554114 9.73890554 2.875 6.3125 C2.33617187 5.13300781 1.79734375 3.95351562 1.2421875 2.73828125 C0.83226562 1.83464844 0.42234375 0.93101562 0 0 Z " fill="#240203" transform="translate(364,180)"/>
<path d="M0 0 C-3.36404218 2.24269478 -6.75716923 3.38655744 -10.5625 4.625 C-11.24763672 4.85445313 -11.93277344 5.08390625 -12.63867188 5.3203125 C-17.73272414 7 -17.73272414 7 -20 7 C-20 6.34 -20 5.68 -20 5 C-17.79567015 4.15450362 -15.58751467 3.32357186 -13.375 2.5 C-11.53035156 1.80390625 -11.53035156 1.80390625 -9.6484375 1.09375 C-6.18957134 0.05683081 -3.57814964 -0.22019382 0 0 Z " fill="#2C0304" transform="translate(227,120)"/>
<path d="M0 0 C1.32 0.33 2.64 0.66 4 1 C1.03 4.3 -1.94 7.6 -5 11 C-5.33 9.68 -5.66 8.36 -6 7 C-5.01 6.67 -4.02 6.34 -3 6 C-1.84478498 3.52869082 -1.84478498 3.52869082 -1 1 C-0.67 0.67 -0.34 0.34 0 0 Z " fill="#270405" transform="translate(162,156)"/>
<path d="M0 0 C0.33 0.66 0.66 1.32 1 2 C-1.99206986 6.44536093 -4.58690458 9.84778899 -9 13 C-9.66 12.67 -10.32 12.34 -11 12 C-7.37 8.04 -3.74 4.08 0 0 Z " fill="#D9DCDD" transform="translate(369,335)"/>
<path d="M0 0 C0.66 0 1.32 0 2 0 C1.34 3.63 0.68 7.26 0 11 C-0.99 11.33 -1.98 11.66 -3 12 C-2.88541307 10.56163249 -2.75790884 9.12429034 -2.625 7.6875 C-2.55539063 6.88699219 -2.48578125 6.08648437 -2.4140625 5.26171875 C-2 3 -2 3 0 0 Z " fill="#BD3338" transform="translate(140,197)"/>
<path d="M0 0 C1.32 0.33 2.64 0.66 4 1 C3.52949219 1.39832031 3.05898437 1.79664063 2.57421875 2.20703125 C1.64029297 3.00173828 1.64029297 3.00173828 0.6875 3.8125 C0.07261719 4.33457031 -0.54226562 4.85664063 -1.17578125 5.39453125 C-2.85424679 6.87172469 -4.43882034 8.40039131 -6 10 C-5.49477778 5.62140745 -2.82172778 3.18348776 0 0 Z " fill="#2D0405" transform="translate(172,146)"/>
<path d="M0 0 C0.8353125 0.556875 0.8353125 0.556875 1.6875 1.125 C0.6975 2.61 0.6975 2.61 -0.3125 4.125 C-3.82966303 4.125 -4.68371748 3.30054415 -7.3125 1.125 C-2.88173077 -1.09038462 -2.88173077 -1.09038462 0 0 Z " fill="#1D1F23" transform="translate(271.3125,221.875)"/>
<path d="M0 0 C-3.3 2.31 -6.6 4.62 -10 7 C-10.33 6.34 -10.66 5.68 -11 5 C-10.34 5 -9.68 5 -9 5 C-8.9175 4.38125 -8.835 3.7625 -8.75 3.125 C-8 1 -8 1 -6.1875 -0.3125 C-4 -1 -4 -1 0 0 Z " fill="#2B0404" transform="translate(187,139)"/>
<path d="M0 0 C3.63 0 7.26 0 11 0 C10.67 1.32 10.34 2.64 10 4 C8.35 3.67 6.7 3.34 5 3 C5 2.34 5 1.68 5 1 C3.35 1 1.7 1 0 1 C0 0.67 0 0.34 0 0 Z " fill="#1F2324" transform="translate(251,265)"/>
<path d="M0 0 C2.4375 0.375 2.4375 0.375 5 1 C5.33 1.66 5.66 2.32 6 3 C6.99 3.33 7.98 3.66 9 4 C8.67 5.32 8.34 6.64 8 8 C7.01 7.34 6.02 6.68 5 6 C5 5.34 5 4.68 5 4 C4.360625 3.71125 3.72125 3.4225 3.0625 3.125 C1 2 1 2 0 0 Z " fill="#310506" transform="translate(331,142)"/>
<path d="M0 0 C4.42857143 5.14285714 4.42857143 5.14285714 5 9 C1.125 7.125 1.125 7.125 0 6 C-0.04080783 4.00041636 -0.04254356 1.99954746 0 0 Z " fill="#320708" transform="translate(284,221)"/>
<path d="M0 0 C0 0.99 0 1.98 0 3 C-1.75 4.60546875 -1.75 4.60546875 -4 6.1875 C-4.7425 6.71730469 -5.485 7.24710938 -6.25 7.79296875 C-6.8275 8.19128906 -7.405 8.58960938 -8 9 C-8.66 8.67 -9.32 8.34 -10 8 C-8.89764064 7.03958829 -7.79303376 6.08175593 -6.6875 5.125 C-5.76517578 4.32449219 -5.76517578 4.32449219 -4.82421875 3.5078125 C-3 2 -3 2 0 0 Z " fill="#232526" transform="translate(173,123)"/>
<path d="M0 0 C1.65 0 3.3 0 5 0 C5.66 1.98 6.32 3.96 7 6 C2.32307692 4.52307692 2.32307692 4.52307692 0.6875 1.875 C0.460625 1.25625 0.23375 0.6375 0 0 Z " fill="#1B1E1F" transform="translate(233,270)"/>
<path d="M0 0 C0.33 0 0.66 0 1 0 C0.48041715 4.37934119 -0.05675742 8.68803391 -1 13 C-1.33 13 -1.66 13 -2 13 C-2.05447047 11.58376784 -2.09300508 10.16691809 -2.125 8.75 C-2.14820313 7.96109375 -2.17140625 7.1721875 -2.1953125 6.359375 C-1.9828378 3.79268059 -1.28654105 2.2083933 0 0 Z " fill="#2B0204" transform="translate(133,213)"/>
<path d="M0 0 C0.99 0 1.98 0 3 0 C3.33 0.66 3.66 1.32 4 2 C4.66 1.67 5.32 1.34 6 1 C5.67 2.65 5.34 4.3 5 6 C2.5 4.6875 2.5 4.6875 0 3 C0 2.01 0 1.02 0 0 Z " fill="#E2E6E7" transform="translate(349,129)"/>
<path d="M0 0 C2.96404505 2.80804268 5.44499019 5.18315774 7 9 C5.1875 8.875 5.1875 8.875 3 8 C0 2.96428571 0 2.96428571 0 0 Z " fill="#A32E38" transform="translate(349,160)"/>
<path d="M0 0 C1.32 0 2.64 0 4 0 C4.33 0.99 4.66 1.98 5 3 C5.66 3.33 6.32 3.66 7 4 C7.625 6.5625 7.625 6.5625 8 9 C5.06799526 6.14723863 2.35684596 3.34920216 0 0 Z " fill="#290303" transform="translate(346,156)"/>
<path d="M0 0 C2.66735273 2.48952921 4.55746343 4.63408134 6 8 C5.01 8.33 4.02 8.66 3 9 C0 2.25 0 2.25 0 0 Z " fill="#282B2C" transform="translate(149,309)"/>
<path d="M0 0 C0.6875 1.6875 0.6875 1.6875 1 4 C-0.3125 6.75 -0.3125 6.75 -2 9 C-2.66 9 -3.32 9 -4 9 C-2.94124926 5.59687262 -1.99097846 2.98646769 0 0 Z " fill="#A42D32" transform="translate(148,179)"/>
<path d="M0 0 C1.5 1.3125 1.5 1.3125 3 3 C3 3.99 3 4.98 3 6 C1.35 5.67 -0.3 5.34 -2 5 C-1.34 3.35 -0.68 1.7 0 0 Z " fill="#131416" transform="translate(130,169)"/>
<path d="M0 0 C0.6875 1.8125 0.6875 1.8125 1 4 C-0.4375 5.75 -0.4375 5.75 -2 7 C-2.99 6.34 -3.98 5.68 -5 5 C-3.35 3.35 -1.7 1.7 0 0 Z " fill="#1A1D1F" transform="translate(149,144)"/>
<path d="M0 0 C0.66 0.33 1.32 0.66 2 1 C2 1.66 2 2.32 2 3 C2.66 3.33 3.32 3.66 4 4 C-2.625 3.25 -2.625 3.25 -6 1 C-4.7934375 1.0309375 -4.7934375 1.0309375 -3.5625 1.0625 C-1.06645115 1.29633621 -1.06645115 1.29633621 0 0 Z " fill="#28292B" transform="translate(209,378)"/>
<path d="M0 0 C0 3 0 3 -2 5.1875 C-2.66 5.785625 -3.32 6.38375 -4 7 C-4.99 6.67 -5.98 6.34 -7 6 C-4.69 4.02 -2.38 2.04 0 0 Z " fill="#D3D6D7" transform="translate(357,348)"/>
<path d="M0 0 C0.66 0.66 1.32 1.32 2 2 C0.35 3.32 -1.3 4.64 -3 6 C-3.33 4.68 -3.66 3.36 -4 2 C-2.68 1.34 -1.36 0.68 0 0 Z " fill="#C8CCCD" transform="translate(333,339)"/>
<path d="M0 0 C0.33 0 0.66 0 1 0 C1 2.31 1 4.62 1 7 C-0.65 7.33 -2.3 7.66 -4 8 C-2.68 5.36 -1.36 2.72 0 0 Z " fill="#202223" transform="translate(276,250)"/>
<path d="M0 0 C0.99 0.33 1.98 0.66 3 1 C3 1.99 3 2.98 3 4 C4.65 4 6.3 4 8 4 C8 4.33 8 4.66 8 5 C5.69 5 3.38 5 1 5 C0.67 3.35 0.34 1.7 0 0 Z " fill="#A73839" transform="translate(289,229)"/>
<path d="M0 0 C0.66 0.33 1.32 0.66 2 1 C-0.52956528 4.0916909 -3.22454612 4.90931332 -7 6 C-2.25 1.125 -2.25 1.125 0 0 Z " fill="#D6D8DA" transform="translate(247,223)"/>
<path d="M0 0 C0.33 0.66 0.66 1.32 1 2 C0.22265625 3.9453125 0.22265625 3.9453125 -0.9375 6.125 C-1.31777344 6.84945312 -1.69804687 7.57390625 -2.08984375 8.3203125 C-2.39019531 8.87460938 -2.69054687 9.42890625 -3 10 C-3.66 9.67 -4.32 9.34 -5 9 C-3.7508258 5.54074837 -2.32472205 2.85306797 0 0 Z " fill="#1F2022" transform="translate(136,160)"/>
<path d="M0 0 C0.66 0 1.32 0 2 0 C3.6875 2.375 3.6875 2.375 5 5 C4.67 5.66 4.34 6.32 4 7 C2 5.75 2 5.75 0 4 C0 2.68 0 1.36 0 0 Z " fill="#CC2E3A" transform="translate(347,160)"/>
<path d="M0 0 C2.64752004 2.57784846 4.94432065 4.91648098 7 8 C4.625 7.375 4.625 7.375 2 6 C0.6875 2.875 0.6875 2.875 0 0 Z " fill="#9E2E37" transform="translate(342,152)"/>
</svg>
